<svg width="1413" height="546" overflow="visible" style="display: block;" viewBox="0 0 1413 546" fill="none" xmlns="http://www.w3.org/2000/svg">
<g id="Frame" clip-path="url(#clip0_0_4)">
<g id="Group 2">
<path id="Vector" d="M70.65 77V507" stroke="var(--stroke-0, #A3A3A3)" stroke-opacity="0.35" stroke-width="0.5"/>
<path id="Vector_2" d="M211.95 77V507" stroke="var(--stroke-0, #A3A3A3)" stroke-opacity="0.35" stroke-width="0.5"/>
<path id="Vector_3" d="M353.25 77V507" stroke="var(--stroke-0, #A3A3A3)" stroke-opacity="0.35" stroke-width="0.5"/>
<path id="Vector_4" d="M494.55 77V507" stroke="var(--stroke-0, #A3A3A3)" stroke-opacity="0.35" stroke-width="0.5"/>
<path id="Vector_5" d="M635.85 77V507" stroke="var(--stroke-0, #A3A3A3)" stroke-opacity="0.35" stroke-width="0.5"/>
<path id="Vector_6" d="M777.15 77V507" stroke="var(--stroke-0, #A3A3A3)" stroke-opacity="0.35" stroke-width="0.5"/>
<path id="Vector_7" d="M918.45 77V507" stroke="var(--stroke-0, #A3A3A3)" stroke-opacity="0.35" stroke-width="0.5"/>
<path id="Vector_8" d="M1059.75 77V507" stroke="var(--stroke-0, #A3A3A3)" stroke-opacity="0.35" stroke-width="0.5"/>
<path id="Vector_9" d="M1201.05 77V507" stroke="var(--stroke-0, #A3A3A3)" stroke-opacity="0.35" stroke-width="0.5"/>
<path id="Vector_10" d="M1342.35 77V507" stroke="var(--stroke-0, #A3A3A3)" stroke-opacity="0.35" stroke-width="0.5"/>
<path id="Vector_11" d="M70.65 77H1342.35" stroke="var(--stroke-0, #A3A3A3)" stroke-opacity="0.35" stroke-width="0.5"/>
</g>
<path id="Vector_12" d="M70.65 117H1342.35" stroke="var(--stroke-0, #A3A3A3)" stroke-opacity="0.35" stroke-width="0.5"/>
<path id="Vector_13" d="M70.65 195H1342.35" stroke="var(--stroke-0, #A3A3A3)" stroke-opacity="0.35" stroke-width="0.5"/>
<path id="Vector_14" d="M70.65 273H1342.35" stroke="var(--stroke-0, #A3A3A3)" stroke-opacity="0.35" stroke-width="0.5"/>
<path id="Vector_15" d="M70.65 351H1342.35" stroke="var(--stroke-0, #A3A3A3)" stroke-opacity="0.35" stroke-width="0.5"/>
<path id="Vector_16" d="M70.65 429H1342.35" stroke="var(--stroke-0, #A3A3A3)" stroke-opacity="0.35" stroke-width="0.5"/>
<path id="Vector_17" d="M70.65 507H1342.35" stroke="var(--stroke-0, #A3A3A3)" stroke-opacity="0.35" stroke-width="0.5"/>
<path id="Vector_18" d="M71 499C494.667 468.857 918.333 242.786 1342 77" stroke="var(--stroke-0, #F7F7F7)" stroke-opacity="0.85"/>
<path id="Vector_19" d="M70.65 499.2C494.55 413.4 918.45 273 1342.35 148.2" stroke="var(--stroke-0, #F7F7F7)" stroke-opacity="0.85"/>
<path id="Vector_20" d="M70.65 499.2C494.55 358.8 918.45 312 1342.35 234" stroke="var(--stroke-0, #F7F7F7)" stroke-opacity="0.85"/>
<path id="Vector_21" d="M70.65 499.2C494.55 304.2 918.45 351 1342.35 319.8" stroke="var(--stroke-0, #F7F7F7)" stroke-opacity="0.85"/>
<g id="Vector_22">
</g>
<g id="Frame_2">
<path id="Vector_23" d="M353.5 612.457C147.051 612.457 -20.3087 574.42 -20.3087 527.5C-20.3087 480.58 147.051 442.543 353.5 442.543C559.949 442.543 727.309 480.58 727.309 527.5C727.309 574.42 559.949 612.457 353.5 612.457Z" stroke="var(--stroke-0, #FE6219)" stroke-opacity="0.8"/>
<path id="Vector_24" d="M353.5 731.396C147.051 731.396 -20.3087 640.108 -20.3087 527.5C-20.3087 414.892 147.051 323.604 353.5 323.604C559.949 323.604 727.309 414.892 727.309 527.5C727.309 640.108 559.949 731.396 353.5 731.396Z" stroke="var(--stroke-0, #FE6219)" stroke-opacity="0.8"/>
<path id="Vector_25" d="M353.5 833.343C147.051 833.343 -20.3087 696.413 -20.3087 527.5C-20.3087 358.587 147.051 221.657 353.5 221.657C559.949 221.657 727.309 358.587 727.309 527.5C727.309 696.413 559.949 833.343 353.5 833.343Z" stroke="var(--stroke-0, #FE6219)" stroke-opacity="0.8"/>
<path id="Vector_26" d="M353.5 901.309C306.58 901.309 268.543 733.949 268.543 527.5C268.543 321.051 306.58 153.691 353.5 153.691C400.42 153.691 438.457 321.051 438.457 527.5C438.457 733.949 400.42 901.309 353.5 901.309Z" stroke="var(--stroke-0, #FE6219)" stroke-opacity="0.8"/>
<path id="Vector_27" d="M353.5 901.309C240.892 901.309 149.604 733.949 149.604 527.5C149.604 321.051 240.892 153.691 353.5 153.691C466.108 153.691 557.396 321.051 557.396 527.5C557.396 733.949 466.108 901.309 353.5 901.309Z" stroke="var(--stroke-0, #FE6219)" stroke-opacity="0.8"/>
<path id="Vector_28" d="M353.5 901.309C184.587 901.309 47.6566 733.949 47.6566 527.5C47.6566 321.051 184.587 153.691 353.5 153.691C522.413 153.691 659.344 321.051 659.344 527.5C659.344 733.949 522.413 901.309 353.5 901.309Z" stroke="var(--stroke-0, #FE6219)" stroke-opacity="0.8"/>
<path id="Vector_29" d="M353.5 901.309C147.051 901.309 -20.3087 733.949 -20.3087 527.5C-20.3087 321.051 147.051 153.691 353.5 153.691C559.949 153.691 727.309 321.051 727.309 527.5C727.309 733.949 559.949 901.309 353.5 901.309Z" stroke="var(--stroke-0, #FE6219)" stroke-width="1.2"/>
<path id="Vector_30" d="M-37.3 527.5H-122.257" stroke="var(--stroke-0, #FE6219)" stroke-opacity="0.6" stroke-width="0.8" stroke-dasharray="2 3"/>
<path id="Vector_31" d="M14.9483 722.9L-58.5391 765.378" stroke="var(--stroke-0, #FE6219)" stroke-opacity="0.6" stroke-width="0.8" stroke-dasharray="2 3"/>
<path id="Vector_32" d="M158.1 866.052L115.622 939.539" stroke="var(--stroke-0, #FE6219)" stroke-opacity="0.6" stroke-width="0.8" stroke-dasharray="2 3"/>
<path id="Vector_33" d="M353.5 918.3V1003.26" stroke="var(--stroke-0, #FE6219)" stroke-opacity="0.6" stroke-width="0.8" stroke-dasharray="2 3"/>
<path id="Vector_34" d="M548.9 866.052L591.378 939.539" stroke="var(--stroke-0, #FE6219)" stroke-opacity="0.6" stroke-width="0.8" stroke-dasharray="2 3"/>
<path id="Vector_35" d="M692.052 722.9L765.539 765.378" stroke="var(--stroke-0, #FE6219)" stroke-opacity="0.6" stroke-width="0.8" stroke-dasharray="2 3"/>
<path id="Vector_36" d="M744.3 527.5H829.257" stroke="var(--stroke-0, #FE6219)" stroke-opacity="0.6" stroke-width="0.8" stroke-dasharray="2 3"/>
<path id="Vector_37" d="M692.052 332.1L765.539 289.622" stroke="var(--stroke-0, #FE6219)" stroke-opacity="0.6" stroke-width="0.8" stroke-dasharray="2 3"/>
<path id="Vector_38" d="M548.9 188.948L591.378 115.461" stroke="var(--stroke-0, #FE6219)" stroke-opacity="0.6" stroke-width="0.8" stroke-dasharray="2 3"/>
<path id="Vector_39" d="M353.5 136.7V51.7435" stroke="var(--stroke-0, #FE6219)" stroke-opacity="0.6" stroke-width="0.8" stroke-dasharray="2 3"/>
<path id="Vector_40" d="M158.1 188.948L115.622 115.461" stroke="var(--stroke-0, #FE6219)" stroke-opacity="0.6" stroke-width="0.8" stroke-dasharray="2 3"/>
<path id="Vector_41" d="M14.9483 332.1L-58.5391 289.622" stroke="var(--stroke-0, #FE6219)" stroke-opacity="0.6" stroke-width="0.8" stroke-dasharray="2 3"/>
</g>
</g>
<defs>
<clipPath id="clip0_0_4">
<rect width="1413" height="546" fill="white"/>
</clipPath>
</defs>
</svg>
